G04 EAGLE Gerber RS-274X export*
G75*
%MOMM*%
%FSLAX34Y34*%
%LPD*%
%INTop Copper*%
%IPPOS*%
%AMOC8*
5,1,8,0,0,1.08239X$1,22.5*%
G01*
%ADD10C,1.524000*%
%ADD11P,2.336880X8X112.500000*%
%ADD12C,1.320800*%
%ADD13C,1.676400*%
%ADD14P,1.429621X8X157.500000*%
%ADD15P,1.429621X8X292.500000*%
%ADD16P,1.429621X8X112.500000*%
%ADD17P,1.429621X8X247.500000*%
%ADD18C,1.400000*%
%ADD19C,1.524000*%
%ADD20R,1.676400X1.676400*%
%ADD21C,1.676400*%
%ADD22C,0.152400*%
%ADD23C,0.756400*%


D10*
X80000Y167300D03*
X80000Y192700D03*
D11*
X90000Y501900D03*
X90000Y578100D03*
D12*
X198400Y518504D02*
X198400Y505296D01*
X223800Y505296D02*
X223800Y518504D01*
X249200Y518504D02*
X249200Y505296D01*
X274600Y505296D02*
X274600Y518504D01*
X300000Y518504D02*
X300000Y505296D01*
X325400Y505296D02*
X325400Y518504D01*
X350800Y518504D02*
X350800Y505296D01*
X376200Y505296D02*
X376200Y518504D01*
X376200Y581496D02*
X376200Y594704D01*
X350800Y594704D02*
X350800Y581496D01*
X325400Y581496D02*
X325400Y594704D01*
X300000Y594704D02*
X300000Y581496D01*
X274600Y581496D02*
X274600Y594704D01*
X249200Y594704D02*
X249200Y581496D01*
X223800Y581496D02*
X223800Y594704D01*
X198400Y594704D02*
X198400Y581496D01*
D13*
X176782Y95400D02*
X160018Y95400D01*
X160018Y70000D02*
X176782Y70000D01*
X176782Y44600D02*
X160018Y44600D01*
D14*
X788980Y651020D03*
X771020Y668980D03*
D15*
X830000Y502700D03*
X830000Y477300D03*
D16*
X830000Y197300D03*
X830000Y222700D03*
D17*
X788980Y48980D03*
X771020Y31020D03*
D18*
X780800Y520000D03*
X679200Y520000D03*
X780800Y180000D03*
X679200Y180000D03*
X780800Y460000D03*
X679200Y460000D03*
X780800Y240000D03*
X679200Y240000D03*
X720800Y580000D03*
X619200Y580000D03*
X780800Y400000D03*
X679200Y400000D03*
X780800Y300000D03*
X679200Y300000D03*
X720800Y120000D03*
X619200Y120000D03*
D19*
X148608Y674106D02*
X133368Y674106D01*
X133368Y628894D02*
X148608Y628894D01*
X198392Y674106D02*
X213632Y674106D01*
X213632Y628894D02*
X198392Y628894D01*
X263368Y675206D02*
X278608Y675206D01*
X278608Y629994D02*
X263368Y629994D01*
X328392Y675206D02*
X343632Y675206D01*
X343632Y629994D02*
X328392Y629994D01*
D13*
X48100Y78082D02*
X48100Y61318D01*
X86200Y61318D02*
X86200Y78082D01*
X124300Y78082D02*
X124300Y61318D01*
D19*
X614680Y392900D02*
X629920Y392900D01*
X629920Y418300D02*
X614680Y418300D01*
X614680Y443700D02*
X629920Y443700D01*
X629920Y469100D02*
X614680Y469100D01*
X614680Y494500D02*
X629920Y494500D01*
X629920Y519900D02*
X614680Y519900D01*
X614680Y309400D02*
X629920Y309400D01*
X629920Y284000D02*
X614680Y284000D01*
X614680Y258600D02*
X629920Y258600D01*
X629920Y233200D02*
X614680Y233200D01*
X614680Y207800D02*
X629920Y207800D01*
X629920Y182400D02*
X614680Y182400D01*
D12*
X824311Y606350D02*
X833650Y615689D01*
X815689Y633650D02*
X806350Y624311D01*
X823396Y407300D02*
X836604Y407300D01*
X836604Y432700D02*
X823396Y432700D01*
X823396Y267300D02*
X836604Y267300D01*
X836604Y292700D02*
X823396Y292700D01*
X824311Y93650D02*
X833650Y84311D01*
X815689Y66350D02*
X806350Y75689D01*
D20*
X368300Y177800D03*
D21*
X368300Y304800D03*
X368300Y381000D03*
X368300Y406400D03*
X368300Y330200D03*
X368300Y355600D03*
X241300Y457200D03*
X342900Y457200D03*
X215900Y457200D03*
X215900Y431800D03*
X368300Y431800D03*
X368300Y457200D03*
X215900Y330200D03*
X215900Y304800D03*
X215900Y279400D03*
X215900Y254000D03*
X215900Y228600D03*
X215900Y203200D03*
X241300Y279400D03*
X292100Y457200D03*
X342900Y279400D03*
X368300Y203200D03*
X368300Y228600D03*
X368300Y254000D03*
X368300Y279400D03*
X215900Y406400D03*
X215900Y381000D03*
X215900Y355600D03*
X215900Y177800D03*
X317500Y457200D03*
X266700Y457200D03*
D22*
X535000Y202500D02*
X565000Y172500D01*
X535000Y202500D02*
X370000Y202500D01*
X368300Y203200D01*
D23*
X565000Y172500D03*
D22*
X680000Y300000D02*
X680000Y400000D01*
X680000Y300000D02*
X679200Y300000D01*
X679200Y400000D02*
X680000Y400000D01*
X387500Y247500D02*
X370000Y230000D01*
X387500Y247500D02*
X647500Y247500D01*
X675000Y275000D01*
X675000Y300000D01*
X679200Y300000D01*
X370000Y230000D02*
X368300Y228600D01*
X810000Y520000D02*
X810000Y627500D01*
X810000Y520000D02*
X780800Y520000D01*
X810000Y627500D02*
X811020Y628980D01*
X332500Y445000D02*
X315000Y427500D01*
X332500Y445000D02*
X412500Y445000D01*
X450000Y482500D01*
X742500Y482500D01*
X780000Y520000D01*
X780800Y520000D01*
D23*
X315000Y427500D03*
D22*
X805000Y460000D02*
X830000Y435000D01*
X805000Y460000D02*
X780800Y460000D01*
X830000Y435000D02*
X830000Y432700D01*
X215000Y230000D02*
X202500Y242500D01*
X202500Y260000D01*
X205000Y260000D01*
X212500Y267500D01*
X607500Y267500D01*
X612500Y272500D01*
X632500Y272500D01*
X640000Y280000D01*
X640000Y322500D01*
X637500Y322500D01*
X215900Y228600D02*
X215000Y230000D01*
D23*
X637500Y322500D03*
D22*
X782500Y245000D02*
X830000Y292500D01*
X782500Y245000D02*
X782500Y240000D01*
X830000Y292500D02*
X830000Y292700D01*
X782500Y240000D02*
X780800Y240000D01*
X252500Y217500D02*
X217500Y252500D01*
X252500Y217500D02*
X390000Y217500D01*
X395000Y222500D01*
X762500Y222500D01*
X780000Y240000D01*
X217500Y252500D02*
X215900Y254000D01*
X780000Y240000D02*
X780800Y240000D01*
X225000Y342500D02*
X207500Y342500D01*
X225000Y342500D02*
X262500Y305000D01*
X367500Y305000D01*
X368300Y304800D01*
D23*
X207500Y342500D03*
D22*
X290000Y527500D02*
X350000Y587500D01*
X290000Y527500D02*
X245000Y527500D01*
X235000Y517500D01*
X235000Y467500D01*
X227500Y460000D01*
X227500Y432500D01*
X217500Y432500D01*
X350000Y587500D02*
X350800Y588100D01*
X217500Y432500D02*
X215900Y431800D01*
X80000Y192500D02*
X167500Y105000D01*
X167500Y97500D01*
X80000Y192500D02*
X80000Y192700D01*
X167500Y97500D02*
X168400Y95400D01*
X722500Y585000D02*
X787500Y650000D01*
X722500Y585000D02*
X722500Y580000D01*
X787500Y650000D02*
X788980Y651020D01*
X722500Y580000D02*
X720800Y580000D01*
X830000Y502500D02*
X797500Y470000D01*
X777500Y470000D01*
X770000Y462500D01*
X770000Y400000D01*
X780800Y400000D01*
X830000Y502500D02*
X830000Y502700D01*
X847500Y215000D02*
X830000Y197500D01*
X847500Y215000D02*
X847500Y302500D01*
X785000Y302500D01*
X782500Y300000D01*
X830000Y197500D02*
X830000Y197300D01*
X782500Y300000D02*
X780800Y300000D01*
X205000Y630000D02*
X177500Y630000D01*
X142500Y630000D01*
X140988Y628894D01*
X205000Y630000D02*
X206012Y628894D01*
X202500Y390000D02*
X202500Y375000D01*
X202500Y390000D02*
X177500Y415000D01*
X177500Y630000D01*
D23*
X202500Y375000D03*
D22*
X272500Y630000D02*
X335000Y630000D01*
X272500Y630000D02*
X270988Y629994D01*
X335000Y630000D02*
X336012Y629994D01*
X182500Y415000D02*
X215000Y382500D01*
X182500Y415000D02*
X182500Y617500D01*
X260000Y617500D01*
X270000Y627500D01*
X215000Y382500D02*
X215900Y381000D01*
X270000Y627500D02*
X270988Y629994D01*
X355000Y292500D02*
X367500Y280000D01*
X355000Y292500D02*
X207500Y292500D01*
X122500Y377500D01*
X122500Y577500D01*
X90000Y577500D01*
X367500Y280000D02*
X368300Y279400D01*
X90000Y577500D02*
X90000Y578100D01*
X200000Y590000D02*
X215000Y605000D01*
X355000Y605000D01*
X365000Y595000D01*
X365000Y512500D01*
X375000Y512500D01*
X200000Y590000D02*
X198400Y588100D01*
X375000Y512500D02*
X376200Y511900D01*
X680000Y290000D02*
X680000Y240000D01*
X680000Y290000D02*
X682500Y290000D01*
X690000Y297500D01*
X690000Y460000D01*
X679200Y460000D01*
X679200Y240000D02*
X680000Y240000D01*
X230000Y165000D02*
X217500Y177500D01*
X230000Y165000D02*
X662500Y165000D01*
X677500Y180000D01*
X217500Y177500D02*
X215900Y177800D01*
X677500Y180000D02*
X679200Y180000D01*
X377500Y512500D02*
X395000Y530000D01*
X667500Y530000D01*
X677500Y520000D01*
X377500Y512500D02*
X376200Y511900D01*
X677500Y520000D02*
X679200Y520000D01*
X722500Y115000D02*
X787500Y50000D01*
X722500Y115000D02*
X722500Y120000D01*
X787500Y50000D02*
X788980Y48980D01*
X722500Y120000D02*
X720800Y120000D01*
X810000Y160000D02*
X810000Y180000D01*
X810000Y160000D02*
X810000Y72500D01*
X810000Y180000D02*
X780800Y180000D01*
X810000Y72500D02*
X811020Y71020D01*
X215000Y277500D02*
X197500Y260000D01*
X197500Y160000D01*
X810000Y160000D01*
X215900Y279400D02*
X215000Y277500D01*
X87500Y67500D02*
X110000Y45000D01*
X167500Y45000D01*
X87500Y67500D02*
X86200Y69700D01*
X167500Y45000D02*
X168400Y44600D01*
X327500Y487500D02*
X330000Y490000D01*
X617500Y490000D01*
X620000Y492500D01*
X622300Y494500D01*
D23*
X327500Y487500D03*
D22*
X265000Y495000D02*
X250000Y510000D01*
X265000Y495000D02*
X597500Y495000D01*
X620000Y517500D01*
X250000Y510000D02*
X249200Y511900D01*
X620000Y517500D02*
X622300Y519900D01*
X620000Y417500D02*
X570000Y367500D01*
X260000Y367500D01*
X257500Y365000D01*
X222500Y365000D01*
X220000Y367500D01*
X212500Y367500D01*
X200000Y355000D01*
X200000Y305000D01*
X215000Y305000D01*
X620000Y417500D02*
X622300Y418300D01*
X215900Y304800D02*
X215000Y305000D01*
X570000Y392500D02*
X620000Y442500D01*
X570000Y392500D02*
X275000Y392500D01*
X255000Y372500D01*
X620000Y442500D02*
X622300Y443700D01*
D23*
X255000Y372500D03*
D22*
X562500Y342500D02*
X620000Y285000D01*
X562500Y342500D02*
X230000Y342500D01*
X217500Y355000D01*
X620000Y285000D02*
X622300Y284000D01*
X217500Y355000D02*
X215900Y355600D01*
X617500Y255000D02*
X620000Y257500D01*
X617500Y255000D02*
X370000Y255000D01*
X620000Y257500D02*
X622300Y258600D01*
X370000Y255000D02*
X368300Y254000D01*
X397500Y215000D02*
X402500Y210000D01*
X620000Y210000D01*
X622300Y207800D01*
D23*
X397500Y215000D03*
D22*
X187500Y527500D02*
X247500Y587500D01*
X187500Y527500D02*
X187500Y420000D01*
X392500Y420000D01*
X427500Y455000D01*
X635000Y455000D01*
X645000Y445000D01*
X645000Y255000D01*
X249200Y588100D02*
X247500Y587500D01*
D23*
X645000Y255000D03*
M02*
