G04 EAGLE Gerber RS-274X export*
G75*
%MOMM*%
%FSLAX34Y34*%
%LPD*%
%INTop Copper*%
%IPPOS*%
%AMOC8*
5,1,8,0,0,1.08239X$1,22.5*%
G01*
%ADD10C,1.524000*%
%ADD11P,2.336880X8X112.500000*%
%ADD12C,1.320800*%
%ADD13C,1.676400*%
%ADD14P,1.429621X8X157.500000*%
%ADD15P,1.429621X8X292.500000*%
%ADD16P,1.429621X8X112.500000*%
%ADD17P,1.429621X8X247.500000*%
%ADD18C,1.400000*%
%ADD19C,1.524000*%
%ADD20R,1.676400X1.676400*%
%ADD21C,1.676400*%
%ADD22C,0.152400*%


D10*
X80000Y167300D03*
X80000Y192700D03*
D11*
X90000Y501900D03*
X90000Y578100D03*
D12*
X198400Y518504D02*
X198400Y505296D01*
X223800Y505296D02*
X223800Y518504D01*
X249200Y518504D02*
X249200Y505296D01*
X274600Y505296D02*
X274600Y518504D01*
X300000Y518504D02*
X300000Y505296D01*
X325400Y505296D02*
X325400Y518504D01*
X350800Y518504D02*
X350800Y505296D01*
X376200Y505296D02*
X376200Y518504D01*
X376200Y581496D02*
X376200Y594704D01*
X350800Y594704D02*
X350800Y581496D01*
X325400Y581496D02*
X325400Y594704D01*
X300000Y594704D02*
X300000Y581496D01*
X274600Y581496D02*
X274600Y594704D01*
X249200Y594704D02*
X249200Y581496D01*
X223800Y581496D02*
X223800Y594704D01*
X198400Y594704D02*
X198400Y581496D01*
D13*
X176782Y95400D02*
X160018Y95400D01*
X160018Y70000D02*
X176782Y70000D01*
X176782Y44600D02*
X160018Y44600D01*
D14*
X788980Y651020D03*
X771020Y668980D03*
D15*
X830000Y502700D03*
X830000Y477300D03*
D16*
X830000Y197300D03*
X830000Y222700D03*
D17*
X788980Y48980D03*
X771020Y31020D03*
D18*
X780800Y520000D03*
X679200Y520000D03*
X780800Y180000D03*
X679200Y180000D03*
X780800Y460000D03*
X679200Y460000D03*
X780800Y240000D03*
X679200Y240000D03*
X720800Y580000D03*
X619200Y580000D03*
X780800Y400000D03*
X679200Y400000D03*
X780800Y300000D03*
X679200Y300000D03*
X720800Y120000D03*
X619200Y120000D03*
D19*
X148608Y674106D02*
X133368Y674106D01*
X133368Y628894D02*
X148608Y628894D01*
X198392Y674106D02*
X213632Y674106D01*
X213632Y628894D02*
X198392Y628894D01*
X263368Y675206D02*
X278608Y675206D01*
X278608Y629994D02*
X263368Y629994D01*
X328392Y675206D02*
X343632Y675206D01*
X343632Y629994D02*
X328392Y629994D01*
D13*
X48100Y78082D02*
X48100Y61318D01*
X86200Y61318D02*
X86200Y78082D01*
X124300Y78082D02*
X124300Y61318D01*
D19*
X614680Y392900D02*
X629920Y392900D01*
X629920Y418300D02*
X614680Y418300D01*
X614680Y443700D02*
X629920Y443700D01*
X629920Y469100D02*
X614680Y469100D01*
X614680Y494500D02*
X629920Y494500D01*
X629920Y519900D02*
X614680Y519900D01*
X614680Y309400D02*
X629920Y309400D01*
X629920Y284000D02*
X614680Y284000D01*
X614680Y258600D02*
X629920Y258600D01*
X629920Y233200D02*
X614680Y233200D01*
X614680Y207800D02*
X629920Y207800D01*
X629920Y182400D02*
X614680Y182400D01*
D12*
X824311Y606350D02*
X833650Y615689D01*
X815689Y633650D02*
X806350Y624311D01*
X823396Y407300D02*
X836604Y407300D01*
X836604Y432700D02*
X823396Y432700D01*
X823396Y267300D02*
X836604Y267300D01*
X836604Y292700D02*
X823396Y292700D01*
X824311Y93650D02*
X833650Y84311D01*
X815689Y66350D02*
X806350Y75689D01*
D20*
X368300Y177800D03*
D21*
X368300Y304800D03*
X368300Y381000D03*
X368300Y406400D03*
X368300Y330200D03*
X368300Y355600D03*
X241300Y457200D03*
X342900Y457200D03*
X215900Y457200D03*
X215900Y431800D03*
X368300Y431800D03*
X368300Y457200D03*
X215900Y330200D03*
X215900Y304800D03*
X215900Y279400D03*
X215900Y254000D03*
X215900Y228600D03*
X215900Y203200D03*
X241300Y279400D03*
X292100Y457200D03*
X342900Y279400D03*
X368300Y203200D03*
X368300Y228600D03*
X368300Y254000D03*
X368300Y279400D03*
X215900Y406400D03*
X215900Y381000D03*
X215900Y355600D03*
X215900Y177800D03*
X317500Y457200D03*
X266700Y457200D03*
D22*
X830580Y266700D02*
X830580Y224028D01*
X830000Y222700D01*
X830580Y266700D02*
X830000Y267300D01*
X623316Y390144D02*
X623316Y391668D01*
X623316Y390144D02*
X623316Y310896D01*
X622300Y309400D01*
X623316Y391668D02*
X622300Y392900D01*
X830580Y408432D02*
X830580Y413004D01*
X845820Y428244D01*
X845820Y441960D02*
X845820Y461772D01*
X845820Y441960D02*
X845820Y428244D01*
X845820Y461772D02*
X830580Y477012D01*
X830580Y408432D02*
X830000Y407300D01*
X830580Y477012D02*
X830000Y477300D01*
X784860Y390144D02*
X623316Y390144D01*
X784860Y390144D02*
X813816Y419100D01*
X813816Y435864D01*
X819912Y441960D01*
X845820Y441960D01*
X623316Y390144D02*
X622300Y392900D01*
X829056Y274320D02*
X829056Y268224D01*
X829056Y274320D02*
X813816Y289560D01*
X813816Y391668D01*
X829056Y406908D01*
X829056Y268224D02*
X830000Y267300D01*
X829056Y406908D02*
X830000Y407300D01*
X80772Y166116D02*
X80772Y156972D01*
X167640Y70104D01*
X80772Y166116D02*
X80000Y167300D01*
X167640Y70104D02*
X168400Y70000D01*
X275844Y176784D02*
X367284Y176784D01*
X275844Y176784D02*
X169164Y70104D01*
X367284Y176784D02*
X368300Y177800D01*
X169164Y70104D02*
X168400Y70000D01*
X275844Y512064D02*
X298704Y512064D01*
X275844Y512064D02*
X274600Y511900D01*
X298704Y512064D02*
X300000Y511900D01*
X298704Y588264D02*
X275844Y588264D01*
X274600Y588100D01*
X298704Y588264D02*
X300000Y588100D01*
X205740Y673608D02*
X141732Y673608D01*
X140988Y674106D01*
X205740Y673608D02*
X206012Y674106D01*
X207264Y675132D02*
X252984Y675132D01*
X269748Y675132D01*
X270988Y675206D01*
X207264Y675132D02*
X206012Y674106D01*
X271272Y675132D02*
X335280Y675132D01*
X336012Y675206D01*
X271272Y675132D02*
X270988Y675206D01*
X91440Y560832D02*
X91440Y502920D01*
X91440Y560832D02*
X123444Y592836D01*
X123444Y656844D01*
X140208Y673608D01*
X91440Y502920D02*
X90000Y501900D01*
X140208Y673608D02*
X140988Y674106D01*
X274320Y605028D02*
X274320Y588264D01*
X274320Y605028D02*
X252984Y626364D01*
X252984Y675132D01*
X274320Y588264D02*
X274600Y588100D01*
X605028Y669036D02*
X769620Y669036D01*
X605028Y669036D02*
X595884Y678180D01*
X338328Y678180D01*
X336804Y676656D01*
X769620Y669036D02*
X771020Y668980D01*
X336804Y676656D02*
X336012Y675206D01*
X451104Y120396D02*
X618744Y120396D01*
X451104Y120396D02*
X368300Y203200D01*
X618744Y120396D02*
X619200Y120000D01*
X595884Y228600D02*
X368300Y228600D01*
X595884Y228600D02*
X615696Y248412D01*
X633984Y248412D01*
X678180Y292608D01*
X678180Y298704D01*
X679200Y300000D01*
X810768Y550164D02*
X810768Y627888D01*
X810768Y550164D02*
X781812Y521208D01*
X810768Y627888D02*
X811020Y628980D01*
X781812Y521208D02*
X780800Y520000D01*
X214884Y239268D02*
X214884Y228600D01*
X214884Y239268D02*
X204216Y249936D01*
X204216Y257556D01*
X214884Y268224D01*
X609600Y268224D01*
X614172Y272796D01*
X638556Y272796D01*
X752856Y387096D01*
X786384Y387096D01*
X830580Y431292D01*
X215900Y228600D02*
X214884Y228600D01*
X830000Y432700D02*
X830580Y431292D01*
X327660Y252984D02*
X216408Y252984D01*
X327660Y252984D02*
X362712Y217932D01*
X758952Y217932D01*
X780288Y239268D01*
X216408Y252984D02*
X215900Y254000D01*
X780288Y239268D02*
X780800Y240000D01*
X199644Y457200D02*
X199644Y510540D01*
X199644Y457200D02*
X213360Y443484D01*
X228600Y443484D01*
X367284Y304800D01*
X199644Y510540D02*
X198400Y511900D01*
X367284Y304800D02*
X368300Y304800D01*
X266700Y467868D02*
X224028Y510540D01*
X266700Y467868D02*
X271272Y467868D01*
X280416Y458724D01*
X280416Y452628D01*
X352044Y381000D01*
X368300Y381000D01*
X224028Y510540D02*
X223800Y511900D01*
X352044Y510540D02*
X352044Y463296D01*
X356616Y458724D01*
X356616Y417576D01*
X367284Y406908D01*
X352044Y510540D02*
X350800Y511900D01*
X367284Y406908D02*
X368300Y406400D01*
X222504Y530352D02*
X222504Y586740D01*
X222504Y530352D02*
X214884Y522732D01*
X214884Y457200D01*
X222504Y586740D02*
X223800Y588100D01*
X215900Y457200D02*
X214884Y457200D01*
X80772Y192024D02*
X80772Y182880D01*
X167640Y96012D01*
X80772Y192024D02*
X80000Y192700D01*
X167640Y96012D02*
X168400Y95400D01*
X787908Y647700D02*
X787908Y650748D01*
X787908Y647700D02*
X720852Y580644D01*
X787908Y650748D02*
X788980Y651020D01*
X720852Y580644D02*
X720800Y580000D01*
X829056Y501396D02*
X829056Y489204D01*
X781812Y441960D01*
X781812Y400812D01*
X829056Y501396D02*
X830000Y502700D01*
X781812Y400812D02*
X780800Y400000D01*
X829056Y210312D02*
X829056Y198120D01*
X829056Y210312D02*
X781812Y257556D01*
X781812Y298704D01*
X829056Y198120D02*
X830000Y197300D01*
X781812Y298704D02*
X780800Y300000D01*
X205740Y629412D02*
X188976Y629412D01*
X141732Y629412D01*
X140988Y628894D01*
X205740Y629412D02*
X206012Y628894D01*
X214884Y417576D02*
X214884Y406908D01*
X214884Y417576D02*
X188976Y443484D01*
X188976Y629412D01*
X214884Y406908D02*
X215900Y406400D01*
X271272Y629412D02*
X335280Y629412D01*
X271272Y629412D02*
X270988Y629994D01*
X335280Y629412D02*
X336012Y629994D01*
X358140Y280416D02*
X367284Y280416D01*
X358140Y280416D02*
X294132Y344424D01*
X211836Y344424D01*
X76200Y480060D01*
X76200Y563880D01*
X89916Y577596D01*
X367284Y280416D02*
X368300Y279400D01*
X89916Y577596D02*
X90000Y578100D01*
X679704Y519684D02*
X679704Y509016D01*
X679704Y460248D01*
X679200Y460000D01*
X679704Y519684D02*
X679200Y520000D01*
X204216Y588264D02*
X199644Y588264D01*
X204216Y588264D02*
X220980Y605028D01*
X227076Y605028D01*
X239268Y592836D01*
X239268Y501396D01*
X245364Y495300D01*
X329184Y495300D01*
X341376Y507492D01*
X341376Y522732D01*
X347472Y528828D01*
X358140Y528828D01*
X374904Y512064D01*
X199644Y588264D02*
X198400Y588100D01*
X374904Y512064D02*
X376200Y511900D01*
X377952Y509016D02*
X679704Y509016D01*
X377952Y509016D02*
X376428Y510540D01*
X376200Y511900D01*
X719328Y118872D02*
X787908Y50292D01*
X788980Y48980D01*
X720800Y120000D02*
X719328Y118872D01*
X810768Y150876D02*
X810768Y71628D01*
X810768Y150876D02*
X781812Y179832D01*
X810768Y71628D02*
X811020Y71020D01*
X781812Y179832D02*
X780800Y180000D01*
X214884Y272796D02*
X214884Y278892D01*
X214884Y272796D02*
X201168Y259080D01*
X201168Y227076D01*
X213360Y214884D01*
X373380Y214884D01*
X394716Y193548D01*
X768096Y193548D01*
X780288Y181356D01*
X215900Y279400D02*
X214884Y278892D01*
X780288Y181356D02*
X780800Y180000D01*
X167640Y45720D02*
X109728Y45720D01*
X86868Y68580D01*
X167640Y45720D02*
X168400Y44600D01*
X86868Y68580D02*
X86200Y69700D01*
X249936Y512064D02*
X254508Y512064D01*
X274320Y531876D01*
X611124Y531876D01*
X621792Y521208D01*
X249936Y512064D02*
X249200Y511900D01*
X621792Y521208D02*
X622300Y519900D01*
X621792Y284988D02*
X377952Y284988D01*
X368808Y294132D01*
X348996Y294132D01*
X288036Y355092D01*
X216408Y355092D01*
X621792Y284988D02*
X622300Y284000D01*
X216408Y355092D02*
X215900Y355600D01*
X371856Y257556D02*
X621792Y257556D01*
X371856Y257556D02*
X368300Y254000D01*
X621792Y257556D02*
X622300Y258600D01*
M02*
