G04 EAGLE Gerber RS-274X export*
G75*
%MOMM*%
%FSLAX34Y34*%
%LPD*%
%INSoldermask Bottom*%
%IPPOS*%
%AMOC8*
5,1,8,0,0,1.08239X$1,22.5*%
G01*
%ADD10C,1.727200*%
%ADD11P,2.556822X8X112.500000*%
%ADD12C,1.524000*%
%ADD13C,1.879600*%
%ADD14C,3.505200*%
%ADD15P,1.649562X8X157.500000*%
%ADD16P,1.649562X8X292.500000*%
%ADD17P,1.649562X8X112.500000*%
%ADD18P,1.649562X8X247.500000*%
%ADD19C,1.603200*%
%ADD20C,1.727200*%
%ADD21R,1.879600X1.879600*%
%ADD22C,1.879600*%
%ADD23C,2.503200*%
%ADD24C,2.203200*%
%ADD25C,0.959600*%


D10*
X80000Y167300D03*
X80000Y192700D03*
D11*
X90000Y501900D03*
X90000Y578100D03*
D12*
X198400Y518504D02*
X198400Y505296D01*
X223800Y505296D02*
X223800Y518504D01*
X249200Y518504D02*
X249200Y505296D01*
X274600Y505296D02*
X274600Y518504D01*
X300000Y518504D02*
X300000Y505296D01*
X325400Y505296D02*
X325400Y518504D01*
X350800Y518504D02*
X350800Y505296D01*
X376200Y505296D02*
X376200Y518504D01*
X376200Y581496D02*
X376200Y594704D01*
X350800Y594704D02*
X350800Y581496D01*
X325400Y581496D02*
X325400Y594704D01*
X300000Y594704D02*
X300000Y581496D01*
X274600Y581496D02*
X274600Y594704D01*
X249200Y594704D02*
X249200Y581496D01*
X223800Y581496D02*
X223800Y594704D01*
X198400Y594704D02*
X198400Y581496D01*
D13*
X176782Y95400D02*
X160018Y95400D01*
X160018Y70000D02*
X176782Y70000D01*
X176782Y44600D02*
X160018Y44600D01*
D14*
X318260Y70000D03*
D15*
X788980Y651020D03*
X771020Y668980D03*
D16*
X830000Y502700D03*
X830000Y477300D03*
D17*
X830000Y197300D03*
X830000Y222700D03*
D18*
X788980Y48980D03*
X771020Y31020D03*
D19*
X780800Y520000D03*
X679200Y520000D03*
X780800Y180000D03*
X679200Y180000D03*
X780800Y460000D03*
X679200Y460000D03*
X780800Y240000D03*
X679200Y240000D03*
X720800Y580000D03*
X619200Y580000D03*
X780800Y400000D03*
X679200Y400000D03*
X780800Y300000D03*
X679200Y300000D03*
X720800Y120000D03*
X619200Y120000D03*
D20*
X148608Y674106D02*
X133368Y674106D01*
X133368Y628894D02*
X148608Y628894D01*
X198392Y674106D02*
X213632Y674106D01*
X213632Y628894D02*
X198392Y628894D01*
X263368Y675206D02*
X278608Y675206D01*
X278608Y629994D02*
X263368Y629994D01*
X328392Y675206D02*
X343632Y675206D01*
X343632Y629994D02*
X328392Y629994D01*
D13*
X48100Y78082D02*
X48100Y61318D01*
X86200Y61318D02*
X86200Y78082D01*
X124300Y78082D02*
X124300Y61318D01*
D20*
X614680Y392900D02*
X629920Y392900D01*
X629920Y418300D02*
X614680Y418300D01*
X614680Y443700D02*
X629920Y443700D01*
X629920Y469100D02*
X614680Y469100D01*
X614680Y494500D02*
X629920Y494500D01*
X629920Y519900D02*
X614680Y519900D01*
X614680Y309400D02*
X629920Y309400D01*
X629920Y284000D02*
X614680Y284000D01*
X614680Y258600D02*
X629920Y258600D01*
X629920Y233200D02*
X614680Y233200D01*
X614680Y207800D02*
X629920Y207800D01*
X629920Y182400D02*
X614680Y182400D01*
D12*
X824311Y606350D02*
X833650Y615689D01*
X815689Y633650D02*
X806350Y624311D01*
X823396Y407300D02*
X836604Y407300D01*
X836604Y432700D02*
X823396Y432700D01*
X823396Y267300D02*
X836604Y267300D01*
X836604Y292700D02*
X823396Y292700D01*
X824311Y93650D02*
X833650Y84311D01*
X815689Y66350D02*
X806350Y75689D01*
D21*
X368300Y177800D03*
D22*
X368300Y304800D03*
X368300Y381000D03*
X368300Y406400D03*
X368300Y330200D03*
X368300Y355600D03*
X241300Y457200D03*
X342900Y457200D03*
X215900Y457200D03*
X215900Y431800D03*
X368300Y431800D03*
X368300Y457200D03*
X215900Y330200D03*
X215900Y304800D03*
X215900Y279400D03*
X215900Y254000D03*
X215900Y228600D03*
X215900Y203200D03*
X241300Y279400D03*
X292100Y457200D03*
X342900Y279400D03*
X368300Y203200D03*
X368300Y228600D03*
X368300Y254000D03*
X368300Y279400D03*
X215900Y406400D03*
X215900Y381000D03*
X215900Y355600D03*
X215900Y177800D03*
X317500Y457200D03*
X266700Y457200D03*
D23*
X100000Y417500D03*
X100000Y282500D03*
D24*
X410000Y660000D03*
X590000Y660000D03*
X590000Y40000D03*
X410000Y40000D03*
D25*
X565000Y172500D03*
X315000Y427500D03*
X637500Y322500D03*
X207500Y342500D03*
X202500Y375000D03*
X327500Y487500D03*
X255000Y372500D03*
X397500Y215000D03*
X645000Y255000D03*
M02*
